<mxfile host="Electron" agent="Mozilla/5.0 (X11; Linux x86_64) AppleWebKit/537.36 (KHTML, like Gecko) draw.io/24.7.17 Chrome/128.0.6613.36 Electron/32.0.1 Safari/537.36" version="24.7.17">
  <diagram name="Page-1" id="HTrUAYfGJSQrFEp8KdW4">
    <mxGraphModel dx="1595" dy="729" grid="1" gridSize="10" guides="1" tooltips="1" connect="1" arrows="1" fold="1" page="1" pageScale="1" pageWidth="850" pageHeight="1100" math="0" shadow="0">
      <root>
        <mxCell id="0" />
        <mxCell id="1" parent="0" />
        <mxCell id="Klgh95e9zu6iZpuCvWR3-240" style="edgeStyle=orthogonalEdgeStyle;rounded=0;orthogonalLoop=1;jettySize=auto;html=1;" edge="1" parent="1" source="Klgh95e9zu6iZpuCvWR3-1" target="Klgh95e9zu6iZpuCvWR3-8">
          <mxGeometry relative="1" as="geometry">
            <Array as="points">
              <mxPoint x="320" y="420" />
              <mxPoint x="320" y="465" />
            </Array>
          </mxGeometry>
        </mxCell>
        <mxCell id="Klgh95e9zu6iZpuCvWR3-241" style="edgeStyle=orthogonalEdgeStyle;rounded=0;orthogonalLoop=1;jettySize=auto;html=1;" edge="1" parent="1" source="Klgh95e9zu6iZpuCvWR3-1" target="Klgh95e9zu6iZpuCvWR3-10">
          <mxGeometry relative="1" as="geometry">
            <Array as="points">
              <mxPoint x="320" y="420" />
              <mxPoint x="320" y="505" />
            </Array>
          </mxGeometry>
        </mxCell>
        <mxCell id="Klgh95e9zu6iZpuCvWR3-1" value="&lt;b&gt;FrontEnd&lt;/b&gt;" style="rounded=1;whiteSpace=wrap;html=1;" vertex="1" parent="1">
          <mxGeometry x="180" y="400" width="120" height="40" as="geometry" />
        </mxCell>
        <mxCell id="Klgh95e9zu6iZpuCvWR3-237" style="edgeStyle=orthogonalEdgeStyle;rounded=0;orthogonalLoop=1;jettySize=auto;html=1;" edge="1" parent="1" source="Klgh95e9zu6iZpuCvWR3-2" target="Klgh95e9zu6iZpuCvWR3-14">
          <mxGeometry relative="1" as="geometry">
            <Array as="points">
              <mxPoint x="560" y="420" />
              <mxPoint x="560" y="465" />
            </Array>
          </mxGeometry>
        </mxCell>
        <mxCell id="Klgh95e9zu6iZpuCvWR3-238" style="edgeStyle=orthogonalEdgeStyle;rounded=0;orthogonalLoop=1;jettySize=auto;html=1;" edge="1" parent="1" source="Klgh95e9zu6iZpuCvWR3-2" target="Klgh95e9zu6iZpuCvWR3-20">
          <mxGeometry relative="1" as="geometry">
            <Array as="points">
              <mxPoint x="560" y="420" />
              <mxPoint x="560" y="505" />
            </Array>
          </mxGeometry>
        </mxCell>
        <mxCell id="Klgh95e9zu6iZpuCvWR3-2" value="&lt;b&gt;BackEnd :: API&lt;/b&gt;" style="rounded=1;whiteSpace=wrap;html=1;" vertex="1" parent="1">
          <mxGeometry x="420" y="400" width="120" height="40" as="geometry" />
        </mxCell>
        <mxCell id="Klgh95e9zu6iZpuCvWR3-217" style="edgeStyle=orthogonalEdgeStyle;rounded=0;orthogonalLoop=1;jettySize=auto;html=1;" edge="1" parent="1" source="Klgh95e9zu6iZpuCvWR3-3" target="Klgh95e9zu6iZpuCvWR3-63">
          <mxGeometry relative="1" as="geometry">
            <Array as="points">
              <mxPoint x="800" y="420" />
              <mxPoint x="800" y="470" />
            </Array>
          </mxGeometry>
        </mxCell>
        <mxCell id="Klgh95e9zu6iZpuCvWR3-3" value="&lt;b&gt;Celery&lt;/b&gt;" style="rounded=1;whiteSpace=wrap;html=1;" vertex="1" parent="1">
          <mxGeometry x="660" y="400" width="120" height="40" as="geometry" />
        </mxCell>
        <mxCell id="Klgh95e9zu6iZpuCvWR3-251" style="edgeStyle=orthogonalEdgeStyle;rounded=0;orthogonalLoop=1;jettySize=auto;html=1;" edge="1" parent="1" source="Klgh95e9zu6iZpuCvWR3-8" target="Klgh95e9zu6iZpuCvWR3-66">
          <mxGeometry relative="1" as="geometry">
            <Array as="points">
              <mxPoint x="160" y="465" />
              <mxPoint x="160" y="360" />
              <mxPoint x="320" y="360" />
            </Array>
          </mxGeometry>
        </mxCell>
        <mxCell id="Klgh95e9zu6iZpuCvWR3-8" value="Login" style="whiteSpace=wrap;html=1;rounded=1;" vertex="1" parent="1">
          <mxGeometry x="220" y="450" width="80" height="30" as="geometry" />
        </mxCell>
        <mxCell id="Klgh95e9zu6iZpuCvWR3-252" style="edgeStyle=orthogonalEdgeStyle;rounded=0;orthogonalLoop=1;jettySize=auto;html=1;" edge="1" parent="1" source="Klgh95e9zu6iZpuCvWR3-10" target="Klgh95e9zu6iZpuCvWR3-110">
          <mxGeometry relative="1" as="geometry" />
        </mxCell>
        <mxCell id="Klgh95e9zu6iZpuCvWR3-10" value="Index :: Chat" style="whiteSpace=wrap;html=1;rounded=1;" vertex="1" parent="1">
          <mxGeometry x="220" y="490" width="80" height="30" as="geometry" />
        </mxCell>
        <mxCell id="Klgh95e9zu6iZpuCvWR3-235" style="edgeStyle=orthogonalEdgeStyle;rounded=0;orthogonalLoop=1;jettySize=auto;html=1;" edge="1" parent="1" source="Klgh95e9zu6iZpuCvWR3-14" target="Klgh95e9zu6iZpuCvWR3-8">
          <mxGeometry relative="1" as="geometry" />
        </mxCell>
        <mxCell id="Klgh95e9zu6iZpuCvWR3-14" value="Auth" style="whiteSpace=wrap;html=1;rounded=1;" vertex="1" parent="1">
          <mxGeometry x="480" y="450" width="60" height="30" as="geometry" />
        </mxCell>
        <mxCell id="Klgh95e9zu6iZpuCvWR3-227" style="edgeStyle=orthogonalEdgeStyle;rounded=0;orthogonalLoop=1;jettySize=auto;html=1;" edge="1" parent="1" source="Klgh95e9zu6iZpuCvWR3-20" target="Klgh95e9zu6iZpuCvWR3-226">
          <mxGeometry relative="1" as="geometry" />
        </mxCell>
        <mxCell id="Klgh95e9zu6iZpuCvWR3-249" style="edgeStyle=orthogonalEdgeStyle;rounded=0;orthogonalLoop=1;jettySize=auto;html=1;" edge="1" parent="1" source="Klgh95e9zu6iZpuCvWR3-20" target="Klgh95e9zu6iZpuCvWR3-10">
          <mxGeometry relative="1" as="geometry" />
        </mxCell>
        <mxCell id="Klgh95e9zu6iZpuCvWR3-20" value="Chat" style="rounded=1;whiteSpace=wrap;html=1;" vertex="1" parent="1">
          <mxGeometry x="480" y="490" width="65" height="30" as="geometry" />
        </mxCell>
        <mxCell id="Klgh95e9zu6iZpuCvWR3-248" style="edgeStyle=orthogonalEdgeStyle;rounded=0;orthogonalLoop=1;jettySize=auto;html=1;" edge="1" parent="1" source="Klgh95e9zu6iZpuCvWR3-61" target="Klgh95e9zu6iZpuCvWR3-63">
          <mxGeometry relative="1" as="geometry" />
        </mxCell>
        <mxCell id="Klgh95e9zu6iZpuCvWR3-61" value="CeleryClient" style="whiteSpace=wrap;html=1;rounded=1;" vertex="1" parent="1">
          <mxGeometry x="700" y="650" width="80" height="30" as="geometry" />
        </mxCell>
        <mxCell id="Klgh95e9zu6iZpuCvWR3-246" style="edgeStyle=orthogonalEdgeStyle;rounded=0;orthogonalLoop=1;jettySize=auto;html=1;" edge="1" parent="1" source="Klgh95e9zu6iZpuCvWR3-63" target="Klgh95e9zu6iZpuCvWR3-213">
          <mxGeometry relative="1" as="geometry" />
        </mxCell>
        <mxCell id="Klgh95e9zu6iZpuCvWR3-63" value="NotifyNew&lt;div&gt;Messsage&lt;/div&gt;" style="whiteSpace=wrap;html=1;rounded=1;" vertex="1" parent="1">
          <mxGeometry x="700" y="450" width="80" height="40" as="geometry" />
        </mxCell>
        <mxCell id="Klgh95e9zu6iZpuCvWR3-66" value="User" style="shape=table;startSize=30;container=1;collapsible=1;childLayout=tableLayout;fixedRows=1;rowLines=0;fontStyle=1;align=center;resizeLast=1;html=1;" vertex="1" parent="1">
          <mxGeometry x="240" y="120" width="159.99999999999977" height="150" as="geometry" />
        </mxCell>
        <mxCell id="Klgh95e9zu6iZpuCvWR3-67" value="" style="shape=tableRow;horizontal=0;startSize=0;swimlaneHead=0;swimlaneBody=0;fillColor=none;collapsible=0;dropTarget=0;points=[[0,0.5],[1,0.5]];portConstraint=eastwest;top=0;left=0;right=0;bottom=1;" vertex="1" parent="Klgh95e9zu6iZpuCvWR3-66">
          <mxGeometry y="30" width="159.99999999999977" height="30" as="geometry" />
        </mxCell>
        <mxCell id="Klgh95e9zu6iZpuCvWR3-68" value="PK" style="shape=partialRectangle;connectable=0;fillColor=none;top=0;left=0;bottom=0;right=0;fontStyle=1;overflow=hidden;whiteSpace=wrap;html=1;" vertex="1" parent="Klgh95e9zu6iZpuCvWR3-67">
          <mxGeometry width="30" height="30" as="geometry">
            <mxRectangle width="30" height="30" as="alternateBounds" />
          </mxGeometry>
        </mxCell>
        <mxCell id="Klgh95e9zu6iZpuCvWR3-69" value="UniqueID" style="shape=partialRectangle;connectable=0;fillColor=none;top=0;left=0;bottom=0;right=0;align=left;spacingLeft=6;fontStyle=5;overflow=hidden;whiteSpace=wrap;html=1;" vertex="1" parent="Klgh95e9zu6iZpuCvWR3-67">
          <mxGeometry x="30" width="129.99999999999977" height="30" as="geometry">
            <mxRectangle width="129.99999999999977" height="30" as="alternateBounds" />
          </mxGeometry>
        </mxCell>
        <mxCell id="Klgh95e9zu6iZpuCvWR3-70" value="" style="shape=tableRow;horizontal=0;startSize=0;swimlaneHead=0;swimlaneBody=0;fillColor=none;collapsible=0;dropTarget=0;points=[[0,0.5],[1,0.5]];portConstraint=eastwest;top=0;left=0;right=0;bottom=0;" vertex="1" parent="Klgh95e9zu6iZpuCvWR3-66">
          <mxGeometry y="60" width="159.99999999999977" height="30" as="geometry" />
        </mxCell>
        <mxCell id="Klgh95e9zu6iZpuCvWR3-71" value="" style="shape=partialRectangle;connectable=0;fillColor=none;top=0;left=0;bottom=0;right=0;editable=1;overflow=hidden;whiteSpace=wrap;html=1;" vertex="1" parent="Klgh95e9zu6iZpuCvWR3-70">
          <mxGeometry width="30" height="30" as="geometry">
            <mxRectangle width="30" height="30" as="alternateBounds" />
          </mxGeometry>
        </mxCell>
        <mxCell id="Klgh95e9zu6iZpuCvWR3-72" value="name" style="shape=partialRectangle;connectable=0;fillColor=none;top=0;left=0;bottom=0;right=0;align=left;spacingLeft=6;overflow=hidden;whiteSpace=wrap;html=1;" vertex="1" parent="Klgh95e9zu6iZpuCvWR3-70">
          <mxGeometry x="30" width="129.99999999999977" height="30" as="geometry">
            <mxRectangle width="129.99999999999977" height="30" as="alternateBounds" />
          </mxGeometry>
        </mxCell>
        <mxCell id="Klgh95e9zu6iZpuCvWR3-73" value="" style="shape=tableRow;horizontal=0;startSize=0;swimlaneHead=0;swimlaneBody=0;fillColor=none;collapsible=0;dropTarget=0;points=[[0,0.5],[1,0.5]];portConstraint=eastwest;top=0;left=0;right=0;bottom=0;" vertex="1" parent="Klgh95e9zu6iZpuCvWR3-66">
          <mxGeometry y="90" width="159.99999999999977" height="30" as="geometry" />
        </mxCell>
        <mxCell id="Klgh95e9zu6iZpuCvWR3-74" value="" style="shape=partialRectangle;connectable=0;fillColor=none;top=0;left=0;bottom=0;right=0;editable=1;overflow=hidden;whiteSpace=wrap;html=1;" vertex="1" parent="Klgh95e9zu6iZpuCvWR3-73">
          <mxGeometry width="30" height="30" as="geometry">
            <mxRectangle width="30" height="30" as="alternateBounds" />
          </mxGeometry>
        </mxCell>
        <mxCell id="Klgh95e9zu6iZpuCvWR3-75" value="&lt;b&gt;telegram_chat_id&lt;/b&gt;" style="shape=partialRectangle;connectable=0;fillColor=none;top=0;left=0;bottom=0;right=0;align=left;spacingLeft=6;overflow=hidden;whiteSpace=wrap;html=1;" vertex="1" parent="Klgh95e9zu6iZpuCvWR3-73">
          <mxGeometry x="30" width="129.99999999999977" height="30" as="geometry">
            <mxRectangle width="129.99999999999977" height="30" as="alternateBounds" />
          </mxGeometry>
        </mxCell>
        <mxCell id="Klgh95e9zu6iZpuCvWR3-76" value="" style="shape=tableRow;horizontal=0;startSize=0;swimlaneHead=0;swimlaneBody=0;fillColor=none;collapsible=0;dropTarget=0;points=[[0,0.5],[1,0.5]];portConstraint=eastwest;top=0;left=0;right=0;bottom=0;" vertex="1" parent="Klgh95e9zu6iZpuCvWR3-66">
          <mxGeometry y="120" width="159.99999999999977" height="30" as="geometry" />
        </mxCell>
        <mxCell id="Klgh95e9zu6iZpuCvWR3-77" value="" style="shape=partialRectangle;connectable=0;fillColor=none;top=0;left=0;bottom=0;right=0;editable=1;overflow=hidden;whiteSpace=wrap;html=1;" vertex="1" parent="Klgh95e9zu6iZpuCvWR3-76">
          <mxGeometry width="30" height="30" as="geometry">
            <mxRectangle width="30" height="30" as="alternateBounds" />
          </mxGeometry>
        </mxCell>
        <mxCell id="Klgh95e9zu6iZpuCvWR3-78" value="telegram_bind_token" style="shape=partialRectangle;connectable=0;fillColor=none;top=0;left=0;bottom=0;right=0;align=left;spacingLeft=6;overflow=hidden;whiteSpace=wrap;html=1;" vertex="1" parent="Klgh95e9zu6iZpuCvWR3-76">
          <mxGeometry x="30" width="129.99999999999977" height="30" as="geometry">
            <mxRectangle width="129.99999999999977" height="30" as="alternateBounds" />
          </mxGeometry>
        </mxCell>
        <mxCell id="Klgh95e9zu6iZpuCvWR3-110" value="ChatHistory" style="shape=table;startSize=30;container=1;collapsible=1;childLayout=tableLayout;fixedRows=1;rowLines=0;fontStyle=1;align=center;resizeLast=1;html=1;" vertex="1" parent="1">
          <mxGeometry x="40" y="120" width="160" height="180" as="geometry" />
        </mxCell>
        <mxCell id="Klgh95e9zu6iZpuCvWR3-111" value="" style="shape=tableRow;horizontal=0;startSize=0;swimlaneHead=0;swimlaneBody=0;fillColor=none;collapsible=0;dropTarget=0;points=[[0,0.5],[1,0.5]];portConstraint=eastwest;top=0;left=0;right=0;bottom=1;" vertex="1" parent="Klgh95e9zu6iZpuCvWR3-110">
          <mxGeometry y="30" width="160" height="30" as="geometry" />
        </mxCell>
        <mxCell id="Klgh95e9zu6iZpuCvWR3-112" value="PK" style="shape=partialRectangle;connectable=0;fillColor=none;top=0;left=0;bottom=0;right=0;fontStyle=1;overflow=hidden;whiteSpace=wrap;html=1;" vertex="1" parent="Klgh95e9zu6iZpuCvWR3-111">
          <mxGeometry width="30" height="30" as="geometry">
            <mxRectangle width="30" height="30" as="alternateBounds" />
          </mxGeometry>
        </mxCell>
        <mxCell id="Klgh95e9zu6iZpuCvWR3-113" value="UniqueID" style="shape=partialRectangle;connectable=0;fillColor=none;top=0;left=0;bottom=0;right=0;align=left;spacingLeft=6;fontStyle=5;overflow=hidden;whiteSpace=wrap;html=1;" vertex="1" parent="Klgh95e9zu6iZpuCvWR3-111">
          <mxGeometry x="30" width="130" height="30" as="geometry">
            <mxRectangle width="130" height="30" as="alternateBounds" />
          </mxGeometry>
        </mxCell>
        <mxCell id="Klgh95e9zu6iZpuCvWR3-114" value="" style="shape=tableRow;horizontal=0;startSize=0;swimlaneHead=0;swimlaneBody=0;fillColor=none;collapsible=0;dropTarget=0;points=[[0,0.5],[1,0.5]];portConstraint=eastwest;top=0;left=0;right=0;bottom=0;" vertex="1" parent="Klgh95e9zu6iZpuCvWR3-110">
          <mxGeometry y="60" width="160" height="30" as="geometry" />
        </mxCell>
        <mxCell id="Klgh95e9zu6iZpuCvWR3-115" value="&lt;b&gt;FK&lt;/b&gt;" style="shape=partialRectangle;connectable=0;fillColor=none;top=0;left=0;bottom=0;right=0;editable=1;overflow=hidden;whiteSpace=wrap;html=1;" vertex="1" parent="Klgh95e9zu6iZpuCvWR3-114">
          <mxGeometry width="30" height="30" as="geometry">
            <mxRectangle width="30" height="30" as="alternateBounds" />
          </mxGeometry>
        </mxCell>
        <mxCell id="Klgh95e9zu6iZpuCvWR3-116" value="from_user" style="shape=partialRectangle;connectable=0;fillColor=none;top=0;left=0;bottom=0;right=0;align=left;spacingLeft=6;overflow=hidden;whiteSpace=wrap;html=1;" vertex="1" parent="Klgh95e9zu6iZpuCvWR3-114">
          <mxGeometry x="30" width="130" height="30" as="geometry">
            <mxRectangle width="130" height="30" as="alternateBounds" />
          </mxGeometry>
        </mxCell>
        <mxCell id="Klgh95e9zu6iZpuCvWR3-117" value="" style="shape=tableRow;horizontal=0;startSize=0;swimlaneHead=0;swimlaneBody=0;fillColor=none;collapsible=0;dropTarget=0;points=[[0,0.5],[1,0.5]];portConstraint=eastwest;top=0;left=0;right=0;bottom=0;" vertex="1" parent="Klgh95e9zu6iZpuCvWR3-110">
          <mxGeometry y="90" width="160" height="30" as="geometry" />
        </mxCell>
        <mxCell id="Klgh95e9zu6iZpuCvWR3-118" value="&lt;b&gt;FK&lt;/b&gt;" style="shape=partialRectangle;connectable=0;fillColor=none;top=0;left=0;bottom=0;right=0;editable=1;overflow=hidden;whiteSpace=wrap;html=1;" vertex="1" parent="Klgh95e9zu6iZpuCvWR3-117">
          <mxGeometry width="30" height="30" as="geometry">
            <mxRectangle width="30" height="30" as="alternateBounds" />
          </mxGeometry>
        </mxCell>
        <mxCell id="Klgh95e9zu6iZpuCvWR3-119" value="to_user" style="shape=partialRectangle;connectable=0;fillColor=none;top=0;left=0;bottom=0;right=0;align=left;spacingLeft=6;overflow=hidden;whiteSpace=wrap;html=1;" vertex="1" parent="Klgh95e9zu6iZpuCvWR3-117">
          <mxGeometry x="30" width="130" height="30" as="geometry">
            <mxRectangle width="130" height="30" as="alternateBounds" />
          </mxGeometry>
        </mxCell>
        <mxCell id="Klgh95e9zu6iZpuCvWR3-120" value="" style="shape=tableRow;horizontal=0;startSize=0;swimlaneHead=0;swimlaneBody=0;fillColor=none;collapsible=0;dropTarget=0;points=[[0,0.5],[1,0.5]];portConstraint=eastwest;top=0;left=0;right=0;bottom=0;" vertex="1" parent="Klgh95e9zu6iZpuCvWR3-110">
          <mxGeometry y="120" width="160" height="30" as="geometry" />
        </mxCell>
        <mxCell id="Klgh95e9zu6iZpuCvWR3-121" value="" style="shape=partialRectangle;connectable=0;fillColor=none;top=0;left=0;bottom=0;right=0;editable=1;overflow=hidden;whiteSpace=wrap;html=1;" vertex="1" parent="Klgh95e9zu6iZpuCvWR3-120">
          <mxGeometry width="30" height="30" as="geometry">
            <mxRectangle width="30" height="30" as="alternateBounds" />
          </mxGeometry>
        </mxCell>
        <mxCell id="Klgh95e9zu6iZpuCvWR3-122" value="message" style="shape=partialRectangle;connectable=0;fillColor=none;top=0;left=0;bottom=0;right=0;align=left;spacingLeft=6;overflow=hidden;whiteSpace=wrap;html=1;" vertex="1" parent="Klgh95e9zu6iZpuCvWR3-120">
          <mxGeometry x="30" width="130" height="30" as="geometry">
            <mxRectangle width="130" height="30" as="alternateBounds" />
          </mxGeometry>
        </mxCell>
        <mxCell id="Klgh95e9zu6iZpuCvWR3-126" style="shape=tableRow;horizontal=0;startSize=0;swimlaneHead=0;swimlaneBody=0;fillColor=none;collapsible=0;dropTarget=0;points=[[0,0.5],[1,0.5]];portConstraint=eastwest;top=0;left=0;right=0;bottom=0;" vertex="1" parent="Klgh95e9zu6iZpuCvWR3-110">
          <mxGeometry y="150" width="160" height="30" as="geometry" />
        </mxCell>
        <mxCell id="Klgh95e9zu6iZpuCvWR3-127" style="shape=partialRectangle;connectable=0;fillColor=none;top=0;left=0;bottom=0;right=0;editable=1;overflow=hidden;whiteSpace=wrap;html=1;" vertex="1" parent="Klgh95e9zu6iZpuCvWR3-126">
          <mxGeometry width="30" height="30" as="geometry">
            <mxRectangle width="30" height="30" as="alternateBounds" />
          </mxGeometry>
        </mxCell>
        <mxCell id="Klgh95e9zu6iZpuCvWR3-128" value="read :: Boolean" style="shape=partialRectangle;connectable=0;fillColor=none;top=0;left=0;bottom=0;right=0;align=left;spacingLeft=6;overflow=hidden;whiteSpace=wrap;html=1;" vertex="1" parent="Klgh95e9zu6iZpuCvWR3-126">
          <mxGeometry x="30" width="130" height="30" as="geometry">
            <mxRectangle width="130" height="30" as="alternateBounds" />
          </mxGeometry>
        </mxCell>
        <mxCell id="Klgh95e9zu6iZpuCvWR3-222" style="edgeStyle=orthogonalEdgeStyle;rounded=0;orthogonalLoop=1;jettySize=auto;html=1;" edge="1" parent="1" source="Klgh95e9zu6iZpuCvWR3-213" target="Klgh95e9zu6iZpuCvWR3-73">
          <mxGeometry relative="1" as="geometry" />
        </mxCell>
        <mxCell id="Klgh95e9zu6iZpuCvWR3-213" value="&lt;b&gt;TelegramBot&lt;/b&gt;" style="rounded=1;whiteSpace=wrap;html=1;" vertex="1" parent="1">
          <mxGeometry x="580" y="340" width="80" height="30" as="geometry" />
        </mxCell>
        <mxCell id="Klgh95e9zu6iZpuCvWR3-225" style="edgeStyle=orthogonalEdgeStyle;rounded=0;orthogonalLoop=1;jettySize=auto;html=1;" edge="1" parent="1" source="Klgh95e9zu6iZpuCvWR3-224" target="Klgh95e9zu6iZpuCvWR3-2">
          <mxGeometry relative="1" as="geometry" />
        </mxCell>
        <mxCell id="Klgh95e9zu6iZpuCvWR3-224" value="&lt;b&gt;Nginx&lt;/b&gt;&lt;div&gt;&lt;b&gt;-p 80:5000&lt;/b&gt;&lt;/div&gt;" style="rounded=1;whiteSpace=wrap;html=1;" vertex="1" parent="1">
          <mxGeometry x="431.24" y="340" width="98.76" height="30" as="geometry" />
        </mxCell>
        <mxCell id="Klgh95e9zu6iZpuCvWR3-242" style="edgeStyle=orthogonalEdgeStyle;rounded=0;orthogonalLoop=1;jettySize=auto;html=1;" edge="1" parent="1" source="Klgh95e9zu6iZpuCvWR3-226" target="Klgh95e9zu6iZpuCvWR3-228">
          <mxGeometry relative="1" as="geometry">
            <Array as="points">
              <mxPoint x="479.96" y="580" />
              <mxPoint x="479.96" y="625" />
            </Array>
          </mxGeometry>
        </mxCell>
        <mxCell id="Klgh95e9zu6iZpuCvWR3-243" style="edgeStyle=orthogonalEdgeStyle;rounded=0;orthogonalLoop=1;jettySize=auto;html=1;" edge="1" parent="1" source="Klgh95e9zu6iZpuCvWR3-226" target="Klgh95e9zu6iZpuCvWR3-231">
          <mxGeometry relative="1" as="geometry">
            <Array as="points">
              <mxPoint x="489.96" y="580" />
              <mxPoint x="489.96" y="665" />
            </Array>
          </mxGeometry>
        </mxCell>
        <mxCell id="Klgh95e9zu6iZpuCvWR3-226" value="&lt;b&gt;WebSocket&lt;/b&gt;" style="whiteSpace=wrap;html=1;rounded=1;" vertex="1" parent="1">
          <mxGeometry x="340" y="560" width="119.96" height="40" as="geometry" />
        </mxCell>
        <mxCell id="Klgh95e9zu6iZpuCvWR3-244" style="edgeStyle=orthogonalEdgeStyle;rounded=0;orthogonalLoop=1;jettySize=auto;html=1;" edge="1" parent="1" source="Klgh95e9zu6iZpuCvWR3-228" target="Klgh95e9zu6iZpuCvWR3-10">
          <mxGeometry relative="1" as="geometry" />
        </mxCell>
        <mxCell id="Klgh95e9zu6iZpuCvWR3-228" value="ConnectED" style="whiteSpace=wrap;html=1;rounded=1;" vertex="1" parent="1">
          <mxGeometry x="379.96" y="610" width="80" height="30" as="geometry" />
        </mxCell>
        <mxCell id="Klgh95e9zu6iZpuCvWR3-247" style="edgeStyle=orthogonalEdgeStyle;rounded=0;orthogonalLoop=1;jettySize=auto;html=1;" edge="1" parent="1" source="Klgh95e9zu6iZpuCvWR3-231" target="Klgh95e9zu6iZpuCvWR3-61">
          <mxGeometry relative="1" as="geometry" />
        </mxCell>
        <mxCell id="Klgh95e9zu6iZpuCvWR3-231" value="DisconnectED" style="whiteSpace=wrap;html=1;rounded=1;" vertex="1" parent="1">
          <mxGeometry x="379.96" y="650" width="80" height="30" as="geometry" />
        </mxCell>
        <mxCell id="Klgh95e9zu6iZpuCvWR3-254" style="edgeStyle=orthogonalEdgeStyle;rounded=0;orthogonalLoop=1;jettySize=auto;html=1;" edge="1" parent="1" source="Klgh95e9zu6iZpuCvWR3-114" target="Klgh95e9zu6iZpuCvWR3-67">
          <mxGeometry relative="1" as="geometry" />
        </mxCell>
        <mxCell id="Klgh95e9zu6iZpuCvWR3-255" style="edgeStyle=orthogonalEdgeStyle;rounded=0;orthogonalLoop=1;jettySize=auto;html=1;" edge="1" parent="1" source="Klgh95e9zu6iZpuCvWR3-117" target="Klgh95e9zu6iZpuCvWR3-67">
          <mxGeometry relative="1" as="geometry" />
        </mxCell>
      </root>
    </mxGraphModel>
  </diagram>
</mxfile>
